<svg width="65" height="64" viewBox="0 0 65 64" fill="none" xmlns="http://www.w3.org/2000/svg">
<path d="M25.8837 40.8837L28.9644 32.9988C-3.99987 38.1015 -3.69173 69.0174 19.1063 63.297C-3.32143 66.2654 4.93471 41.5028 18.1818 38.1015C14.9779 39.71 12.0424 42.4826 10.8101 44.2861L10.48 51.2431C10.48 59.1589 19.8765 59.968 23.7272 57.7365L60.9696 37.4855C67.2854 33.8255 65.4714 23.8722 60.3879 21.2494L23.111 0.995172C14.485 -2.46802 10.48 3.92802 10.48 7.64326V36.0909C14.6698 30.8961 24.5487 27.4329 28.9644 26.3507L25.8837 18.0019L45.2923 29.5974L25.8837 40.8837Z" fill="white"/>
<path d="M6.93671 37.7868C3.18849 42.0128 -2.46001 53.5567 3.39387 61.7509C-0.610776 57.8857 -2.79895 46.3211 6.93671 37.7868Z" fill="white"/>
</svg>
